<svg xmlns="http://www.w3.org/2000/svg" xmlns:xlink="http://www.w3.org/1999/xlink" width="500" zoomAndPan="magnify" viewBox="0 0 375 374.999991" height="500" preserveAspectRatio="xMidYMid meet" version="1.0"><defs><clipPath id="6bf0bc21eb"><path d="M 162.542969 183 L 169 183 L 169 197 L 162.542969 197 Z M 162.542969 183 " clip-rule="nonzero"/></clipPath><clipPath id="fad1e8b95e"><path d="M 206 183 L 212.792969 183 L 212.792969 197 L 206 197 Z M 206 183 " clip-rule="nonzero"/></clipPath><clipPath id="a2c0abb182"><path d="M 185 167.222656 L 190 167.222656 L 190 172 L 185 172 Z M 185 167.222656 " clip-rule="nonzero"/></clipPath><clipPath id="98a7aeb4bf"><path d="M 184 201 L 193 201 L 193 207.722656 L 184 207.722656 Z M 184 201 " clip-rule="nonzero"/></clipPath></defs><path fill="#79c032" d="M 194.515625 189.835938 C 193.65625 189.835938 192.957031 189.136719 192.957031 188.277344 C 192.957031 187.414062 193.65625 186.714844 194.515625 186.714844 C 195.378906 186.714844 196.074219 187.414062 196.074219 188.277344 C 196.074219 189.136719 195.378906 189.835938 194.515625 189.835938 Z M 187.5 194.894531 C 185.34375 194.894531 183.601562 193.5 183.601562 191.777344 L 191.398438 191.777344 C 191.398438 193.5 189.652344 194.894531 187.5 194.894531 Z M 180.480469 189.835938 C 179.621094 189.835938 178.921875 189.136719 178.921875 188.277344 C 178.921875 187.414062 179.621094 186.714844 180.480469 186.714844 C 181.34375 186.714844 182.039062 187.414062 182.039062 188.277344 C 182.039062 189.136719 181.34375 189.835938 180.480469 189.835938 Z M 193.738281 180.480469 L 181.261719 180.480469 C 178.675781 180.480469 176.335938 181.527344 174.644531 183.21875 C 172.949219 184.914062 171.902344 187.25 171.902344 189.835938 C 171.902344 195.003906 176.09375 199.191406 181.261719 199.191406 L 193.738281 199.191406 C 196.320312 199.191406 198.660156 198.144531 200.351562 196.453125 C 202.046875 194.757812 203.09375 192.417969 203.09375 189.835938 C 203.09375 184.667969 198.90625 180.480469 193.738281 180.480469 " fill-opacity="1" fill-rule="nonzero"/><path fill="#79c032" d="M 187.5 205.429688 L 182.820312 205.429688 C 180.714844 205.429688 178.671875 205.019531 176.75 204.203125 C 174.894531 203.417969 173.226562 202.292969 171.792969 200.863281 C 170.359375 199.429688 169.238281 197.761719 168.453125 195.90625 C 167.636719 193.984375 167.226562 191.941406 167.226562 189.835938 C 167.226562 187.730469 167.636719 185.6875 168.453125 183.765625 C 169.238281 181.90625 170.359375 180.242188 171.792969 178.808594 C 173.226562 177.375 174.894531 176.253906 176.75 175.464844 C 178.671875 174.652344 180.714844 174.242188 182.820312 174.242188 L 192.175781 174.242188 C 194.28125 174.242188 196.324219 174.652344 198.246094 175.464844 C 200.105469 176.253906 201.773438 177.375 203.203125 178.808594 C 204.636719 180.242188 205.761719 181.90625 206.546875 183.765625 C 207.359375 185.6875 207.773438 187.730469 207.773438 189.835938 L 206.210938 189.835938 C 206.210938 182.097656 199.917969 175.800781 192.175781 175.800781 L 182.820312 175.800781 C 175.082031 175.800781 168.785156 182.097656 168.785156 189.835938 C 168.785156 197.574219 175.082031 203.871094 182.820312 203.871094 L 187.5 203.871094 L 187.5 205.429688 " fill-opacity="1" fill-rule="nonzero"/><g clip-path="url(#6bf0bc21eb)"><path fill="#79c032" d="M 168.785156 196.074219 C 165.339844 196.074219 162.546875 193.28125 162.546875 189.835938 C 162.546875 186.390625 165.339844 183.597656 168.785156 183.597656 L 168.785156 196.074219 " fill-opacity="1" fill-rule="nonzero"/></g><g clip-path="url(#fad1e8b95e)"><path fill="#79c032" d="M 206.210938 196.074219 C 209.65625 196.074219 212.449219 193.28125 212.449219 189.835938 C 212.449219 186.390625 209.65625 183.597656 206.210938 183.597656 L 206.210938 196.074219 " fill-opacity="1" fill-rule="nonzero"/></g><path fill="#79c032" d="M 191.398438 181.257812 C 191.398438 182.980469 189.652344 184.378906 187.5 184.378906 C 185.34375 184.378906 183.601562 182.980469 183.601562 181.257812 C 183.601562 179.535156 185.34375 178.140625 187.5 178.140625 C 189.652344 178.140625 191.398438 179.535156 191.398438 181.257812 " fill-opacity="1" fill-rule="nonzero"/><g clip-path="url(#a2c0abb182)"><path fill="#79c032" d="M 189.839844 169.5625 C 189.839844 170.855469 188.789062 171.902344 187.5 171.902344 C 186.207031 171.902344 185.160156 170.855469 185.160156 169.5625 C 185.160156 168.269531 186.207031 167.222656 187.5 167.222656 C 188.789062 167.222656 189.839844 168.269531 189.839844 169.5625 " fill-opacity="1" fill-rule="nonzero"/></g><g clip-path="url(#98a7aeb4bf)"><path fill="#79c032" d="M 192.175781 204.652344 C 192.175781 206.375 190.433594 207.769531 188.277344 207.769531 C 186.125 207.769531 184.378906 206.375 184.378906 204.652344 C 184.378906 202.929688 186.125 201.53125 188.277344 201.53125 C 190.433594 201.53125 192.175781 202.929688 192.175781 204.652344 " fill-opacity="1" fill-rule="nonzero"/></g><path fill="#79c032" d="M 188.277344 183.628906 L 186.71875 183.628906 L 186.71875 169.5625 L 188.277344 169.5625 L 188.277344 183.628906 " fill-opacity="1" fill-rule="nonzero"/></svg>